<?xml version="1.0" standalone="no"?>
<!DOCTYPE svg PUBLIC "-//W3C//DTD SVG 20010904//EN"
 "http://www.w3.org/TR/2001/REC-SVG-20010904/DTD/svg10.dtd">
<svg version="1.0" xmlns="http://www.w3.org/2000/svg"
 width="840.000000pt" height="859.000000pt" viewBox="0 0 840.000000 859.000000"
 preserveAspectRatio="xMidYMid meet">

<g transform="translate(0.000000,859.000000) scale(0.100000,-0.100000)"
fill="#000000" stroke="none">
<path d="M2870 8111 c-229 -7 -249 -9 -312 -33 -159 -60 -320 -182 -413 -312
-62 -88 -132 -239 -146 -316 -6 -38 -13 -230 -15 -460 l-5 -395 -222 -2 c-122
-2 -409 -7 -637 -12 l-415 -8 -87 -30 c-127 -44 -227 -110 -343 -227 -89 -89
-107 -114 -153 -206 -29 -58 -57 -129 -62 -159 -26 -143 -32 -539 -27 -1871 4
-965 8 -1380 16 -1417 49 -224 228 -452 444 -564 164 -85 140 -82 698 -86
l496 -4 6 -367 c4 -202 7 -530 7 -729 l0 -361 38 -30 c20 -16 55 -35 78 -42
76 -23 23 -76 904 892 l576 633 1189 6 c842 4 1210 9 1257 17 174 31 324 115
452 253 139 149 208 298 231 492 3 31 9 57 13 57 8 0 95 -93 347 -370 92 -102
224 -245 292 -317 l125 -133 50 0 c55 0 80 10 121 48 l27 26 0 716 0 717 137
12 c163 14 242 32 340 76 95 44 153 84 242 169 115 111 197 246 226 370 27
118 35 470 34 1666 0 1340 -6 1616 -37 1700 -91 255 -300 475 -520 549 -81 28
-228 38 -632 45 -492 9 -4046 14 -4320 7z m4877 -309 c181 -74 287 -188 329
-355 18 -69 19 -147 19 -1662 l0 -1590 -37 -72 c-44 -83 -141 -192 -213 -239
-79 -50 -141 -63 -345 -75 -288 -16 -308 -18 -329 -40 -10 -11 -22 -37 -25
-57 -9 -51 -25 -624 -26 -935 0 -159 -4 -257 -9 -255 -6 2 -159 167 -340 367
l-331 364 0 1081 c-1 1136 -8 1502 -34 1624 -47 219 -239 448 -467 557 -154
73 -19 68 -1953 72 l-1738 4 5 382 c5 419 11 465 67 585 40 87 143 188 236
233 l69 34 195 6 c107 4 1243 5 2525 3 l2330 -3 72 -29z m-1912 -1535 c132
-65 233 -172 276 -294 20 -54 22 -90 31 -538 5 -264 7 -982 5 -1595 -3 -1014
-5 -1120 -21 -1174 -42 -147 -126 -244 -282 -323 l-99 -51 -1025 -7 c-564 -4
-1143 -10 -1287 -14 -241 -6 -263 -8 -284 -26 -12 -11 -270 -290 -574 -620
-304 -330 -562 -608 -573 -619 -21 -18 -21 -18 -26 5 -3 13 -7 288 -8 610 -3
561 -4 588 -22 608 -37 41 -70 43 -651 51 -527 7 -564 9 -625 29 -131 41 -239
135 -308 269 l-42 80 0 1631 0 1632 35 73 c59 125 165 222 304 278 l56 23 760
5 c418 3 1557 4 2530 1 l1770 -4 60 -30z"/>
<path d="M1327 5160 c-58 -68 -56 -134 5 -197 l32 -33 961 0 961 0 31 33 c65
68 71 122 20 189 l-33 43 -971 3 -971 2 -35 -40z"/>
<path d="M1337 4343 c-67 -71 -67 -146 -1 -215 l35 -38 1864 0 1863 0 30 38
c40 51 52 76 52 109 0 38 -34 91 -68 104 -56 22 -472 28 -2088 28 l-1660 1
-27 -27z"/>
<path d="M1331 3503 c-59 -71 -59 -135 0 -206 l31 -38 1631 2 c1682 1 2058 7
2121 33 40 17 66 60 66 111 0 29 -9 45 -46 85 l-47 50 -1863 0 -1863 0 -30
-37z"/>
</g>
</svg>
